PathFileType	4	(X/Y/Z)	/Users/itak/Documents/Research/Walk-IL/dataset/trc/00375_00011.trc
DataRate	CameraRate	NumFrames	NumMarkers	Units	OrigDataRate	OrigDataStartFrame	OrigNumFrames
100.000000	100.000000	4	56	mm	100.000000	376	502
Frame#	Time	RPSI			LPSI			L3			STRN			T10			C7			CLAV			RBAK			LBAK			LSHO			LUPA			LAEL			LAOL			LWPS			LFRA			LHPS			LHTS			RSHO			RUPA			RAEL			RAOL			RWTS			RWPS			RFRA			RIFD			RHTS			RHPS			RBHD			LFHD			RFHD			LBHD			LHIP			RHIP			RASI			LASI			LKNE			LTHI			LANK			LTIP			LTOE			LMT1			LMT5			LHEE			RKNE			RTHI			RANK			RTIP			RTOE			RMT1			RMT5			RHEE			LIFD			LWTS			*53			*54			*55			
		X1	Y1	Z1	X2	Y2	Z2	X3	Y3	Z3	X4	Y4	Z4	X5	Y5	Z5	X6	Y6	Z6	X7	Y7	Z7	X8	Y8	Z8	X9	Y9	Z9	X10	Y10	Z10	X11	Y11	Z11	X12	Y12	Z12	X13	Y13	Z13	X14	Y14	Z14	X15	Y15	Z15	X16	Y16	Z16	X17	Y17	Z17	X18	Y18	Z18	X19	Y19	Z19	X20	Y20	Z20	X21	Y21	Z21	X22	Y22	Z22	X23	Y23	Z23	X24	Y24	Z24	X25	Y25	Z25	X26	Y26	Z26	X27	Y27	Z27	X28	Y28	Z28	X29	Y29	Z29	X30	Y30	Z30	X31	Y31	Z31	X32	Y32	Z32	X33	Y33	Z33	X34	Y34	Z34	X35	Y35	Z35	X36	Y36	Z36	X37	Y37	Z37	X38	Y38	Z38	X39	Y39	Z39	X40	Y40	Z40	X41	Y41	Z41	X42	Y42	Z42	X43	Y43	Z43	X44	Y44	Z44	X45	Y45	Z45	X46	Y46	Z46	X47	Y47	Z47	X48	Y48	Z48	X49	Y49	Z49	X50	Y50	Z50	X51	Y51	Z51	X52	Y52	Z52	X53	Y53	Z53	X54	Y54	Z54	X55	Y55	Z55	X56	Y56	Z56	

377	3.76	139.6352233886719	950.2180786132812	425.850341796875	269.760009765625	954.4021606445312	418.7914123535156	192.4816131591797	1021.232299804688	413.7162170410156	225.8284301757812	1198.703369140625	654.0210571289062	181.5187377929688	1138.92626953125	412.7667541503906	192.6098480224609	1386.422241210938	460.9597473144531	219.3285217285156	1324.040771484375	611.8585815429688	116.5043487548828	1248.18603515625	415.5910339355469	288.3532104492188	1351.813354492188	428.7253112792969	362.0926513671875	1366.916748046875	499.668701171875	419.0249633789062	1252.292236328125	447.4797668457031	425.7088623046875	1050.243408203125	423.4335632324219	350.2117614746094	1045.6650390625	384.0408630371094	447.1110534667969	790.297607421875	437.2895812988281	434.3430480957031	944.3041381835938	418.7409973144531	432.8907470703125	720.6663818359375	423.9478149414062	415.7200012207031	714.4075927734375	486.3881530761719	45.25668716430664	1367.776000976562	545.40283203125	-20.08382415771484	1303.404296875	546.1302490234375	-69.77735900878906	1042.4521484375	590.1022338867188	-7.015559196472168	1020.75341796875	523.2347412109375	70.63030242919922	921.812255859375	752.919921875	4.647997856140137	887.720458984375	769.9534301757812	-58.09661483764648	995.166015625	637.5836181640625	121.5293045043945	793.6023559570312	858.9676513671875	100.6983489990234	859.3763427734375	834.4678955078125	39.05008697509766	829.8543090820312	822.37646484375	130.4833221435547	1591.847900390625	536.2369995117188	267.6281433105469	1578.056274414062	691.4297485351562	167.06298828125	1580.9033203125	694.0418090820312	270.9722595214844	1587.165649414062	505.1212463378906	379.9847717285156	905.2109375	503.5877075195312	38.05021286010742	890.5933837890625	511.8371276855469	83.69955444335938	922.99755859375	614.7378540039062	323.0256042480469	934.3577270507812	624.6727905273438	397.9852600097656	473.5818481445312	698.6157836914062	404.1926879882812	603.3905639648438	645.3131713867188	424.7174682617188	44.17283248901367	742.3929443359375	426.2997741699219	259.9193420410156	720.3601684570312	380.3168029785156	101.8483963012695	943.1226806640625	333.3763122558594	72.13994598388672	883.9378051757812	445.9440612792969	71.55431365966797	863.3489379882812	354.79345703125	33.26219177246094	715.3502807617188	130.1952362060547	429.3122863769531	545.721923828125	70.19963073730469	681.3270874023438	583.4035034179688	188.5818481445312	51.46586227416992	382.8415222167969	164.1549377441406	309.8684692382812	524.7424926757812	298.5659484863281	38.30078506469727	550.7206420898438	320.5365905761719	38.62620162963867	484.2747192382812	202.3458862304688	36.57038116455078	483.4818115234375	221.5246887207031	60.94943618774414	322.3198547363281	392.2205200195312	659.003173828125	495.8751831054688	406.4612426757812	796.220703125	493.3740234375	nan	nan	nan	nan	nan	nan	nan	nan	nan	
378	3.77	143.5267028808594	949.4533081054688	432.3414611816406	273.731201171875	953.1489868164062	426.81201171875	196.2150726318359	1019.910766601562	421.1301574707031	227.0077514648438	1197.500366210938	661.3350830078125	185.0075988769531	1137.623901367188	419.9614562988281	194.8472137451172	1385.088745117188	467.9577331542969	220.6878814697266	1322.836303710938	619.1456909179688	119.359489440918	1246.783325195312	422.0176086425781	290.8883972167969	1350.498291015625	436.4833679199219	364.1306457519531	1365.818969726562	507.8320922851562	421.5667114257812	1251.314331054688	455.8811340332031	428.7447509765625	1049.267700195312	431.7059326171875	353.4203491210938	1044.584838867188	392.0007629394531	450.5361328125	789.3717041015625	445.3444519042969	437.6120910644531	943.3292846679688	426.9680480957031	436.3988952636719	719.6888427734375	431.9376220703125	419.1822204589844	713.3229370117188	494.3653564453125	46.95524215698242	1366.237915039062	551.4572143554688	-18.30965614318848	1301.77001953125	551.943115234375	-67.91028594970703	1040.96826171875	596.745849609375	-5.239607810974121	1019.070678710938	529.8487548828125	72.71018981933594	919.669677734375	759.38720703125	6.467767715454102	886.0520629882812	776.6310424804688	-56.19667434692383	993.61767578125	644.3494873046875	122.945686340332	790.6054077148438	864.765625	102.5910034179688	856.5357666015625	840.455322265625	40.58873748779297	827.7885131835938	828.7256469726562	132.5849609375	1590.747314453125	542.69873046875	268.8690795898438	1576.909912109375	698.6406860351562	168.2789459228516	1579.871948242188	700.699951171875	273.2191162109375	1585.845947265625	512.35546875	382.7533264160156	903.2212524414062	512.5521850585938	40.84668350219727	890.0479125976562	517.1102905273438	85.35097503662109	922.094482421875	620.5752563476562	324.5684814453125	932.7860107421875	633.1650390625	396.9517517089844	471.1488037109375	706.6263427734375	404.8102416992188	600.7626342773438	653.2408447265625	418.7333068847656	43.50386047363281	766.65966796875	423.1576232910156	258.533203125	735.8801879882812	373.4065856933594	109.1068496704102	964.8330688476562	326.5563354492188	78.32606506347656	906.1328735351562	439.2699890136719	74.73502349853516	886.9478759765625	348.8431701660156	33.05233764648438	739.3385009765625	130.6845550537109	428.6673278808594	548.928955078125	71.39601135253906	680.5806274414062	587.677978515625	188.8951416015625	51.93039703369141	382.8301696777344	164.4536285400391	309.2327880859375	527.078857421875	298.535888671875	38.26906204223633	550.9061889648438	320.6502990722656	38.9558219909668	484.6223449707031	202.4706878662109	36.66444396972656	483.5707702636719	221.998779296875	61.84878921508789	322.4299926757812	396.1239013671875	658.3883666992188	504.0507507324219	409.7881774902344	795.129150390625	501.4438781738281	nan	nan	nan	nan	nan	nan	nan	nan	nan	
379	3.78	147.3286590576172	948.7023315429688	438.9690246582031	277.6016845703125	951.8838500976562	434.8682861328125	199.8373107910156	1018.569152832031	428.626220703125	228.1792907714844	1196.302612304688	668.7301025390625	188.3906707763672	1136.291870117188	427.2272338867188	197.0496063232422	1383.739135742188	475.0043029785156	222.0331268310547	1321.612426757812	626.4884033203125	122.187370300293	1245.34619140625	428.5138244628906	293.3783874511719	1349.161987304688	444.2752990722656	366.1493225097656	1364.689086914062	516.004150390625	424.078125	1250.298828125	464.3558044433594	431.8305969238281	1048.2333984375	440.1576843261719	356.6963500976562	1043.395751953125	400.159423828125	454.1318969726562	788.4181518554688	453.6243591308594	440.9915161132812	942.3216552734375	435.3996887207031	440.1353149414062	718.7020263671875	440.1651306152344	422.9080505371094	712.21630859375	502.59814453125	48.63322830200195	1364.672119140625	557.579833984375	-16.53998947143555	1300.094848632812	557.804931640625	-66.01389312744141	1039.404907226562	603.2650146484375	-3.380303382873535	1017.358276367188	536.3763427734375	74.65639495849609	917.2850952148438	765.7402954101562	8.118071556091309	884.0567016601562	783.0591430664062	-54.32220458984375	991.9325561523438	650.9583129882812	124.0942535400391	787.1626586914062	870.269775390625	104.2026443481445	853.2440185546875	846.2311401367188	41.89904022216797	825.331298828125	834.7874755859375	134.6708679199219	1589.628784179688	549.1942749023438	270.1105041503906	1575.7587890625	705.8677368164062	169.4947662353516	1578.838500976562	707.3867797851562	275.43798828125	1584.521118164062	519.5934448242188	385.5139465332031	901.31689453125	521.5792236328125	43.64089584350586	889.5297241210938	522.5924072265625	87.04287719726562	921.1943969726562	626.5541381835938	326.1191101074219	931.2518310546875	641.6345825195312	395.7105102539062	468.8099670410156	714.6098022460938	405.3035583496094	598.2103881835938	661.406494140625	412.0809631347656	43.0607795715332	789.0573120117188	419.6228332519531	257.2144165039062	750.41162109375	367.0500793457031	115.8942337036133	984.8482666015625	319.9269714355469	84.33660125732422	926.83447265625	432.6240539550781	77.66288757324219	908.5543212890625	342.0728454589844	33.26992416381836	761.7672729492188	131.1214904785156	428.0471801757812	552.2279052734375	72.57632446289062	679.8606567382812	592.1004638671875	189.1807098388672	52.48039245605469	382.8318176269531	164.6650390625	308.6315612792969	529.4745483398438	298.4905395507812	38.24308395385742	551.0967407226562	320.7238159179688	39.28897094726562	484.9843444824219	202.5979309082031	36.77672958374023	483.6934509277344	222.4379119873047	62.88505172729492	322.55908203125	400.2584533691406	657.6592407226562	512.4666748046875	413.3507385253906	794.0217895507812	509.7524108886719	nan	nan	nan	nan	nan	nan	nan	nan	nan	
380	3.79	151.0528869628906	947.9719848632812	445.7264404296875	281.3739318847656	950.6220703125	442.9613952636719	203.3514556884766	1017.224792480469	436.2022399902344	229.3511047363281	1195.12158203125	676.2115478515625	191.6797485351562	1134.953369140625	434.5429992675781	199.2297058105469	1382.394653320312	482.1075134277344	223.3683776855469	1320.387084960938	633.8925170898438	124.9944381713867	1243.900024414062	435.0819396972656	295.8340759277344	1347.820556640625	452.1034545898438	368.1576232910156	1363.54638671875	524.1942138671875	426.5615539550781	1249.26416015625	472.91455078125	434.9584655761719	1047.159301757812	448.801513671875	360.0398559570312	1042.121337890625	408.5219116210938	457.8814697265625	787.4520263671875	462.1438903808594	444.4700622558594	941.3065795898438	444.0483093261719	444.0904846191406	717.72412109375	448.6356506347656	426.8751220703125	711.10595703125	511.0902099609375	50.2990837097168	1363.103271484375	563.7775268554688	-14.7649393081665	1298.402465820312	563.7169799804688	-64.07894897460938	1037.784423828125	609.6566772460938	-1.412838578224182	1015.640991210938	542.8265380859375	76.45645141601562	914.6785888671875	771.9788818359375	9.586233139038086	881.7554321289062	789.2296142578125	-52.46891784667969	990.1317749023438	657.4036865234375	124.9781646728516	783.3134155273438	875.4703369140625	105.5178527832031	849.5252685546875	851.7898559570312	42.98002624511719	822.5047607421875	840.5623168945312	136.7410736083984	1588.50146484375	555.7275390625	271.3556823730469	1574.623413085938	713.11181640625	170.7138977050781	1577.820190429688	714.1085205078125	277.6275329589844	1583.207397460938	526.8406372070312	388.2809143066406	899.5386962890625	530.680419921875	46.41544342041016	889.0543823242188	528.2676391601562	88.77491760253906	920.3173217773438	632.679443359375	327.6761169433594	929.7671508789062	650.0867919921875	394.2615966796875	466.5838928222656	722.68701171875	405.654541015625	595.782958984375	669.8405151367188	404.9974975585938	42.73722839355469	809.4505615234375	415.7591552734375	255.9489135742188	763.9840087890625	361.218505859375	121.8980255126953	1003.147521972656	313.5448913574219	89.86835479736328	945.9363403320312	426.107666015625	80.15541839599609	928.1210327148438	334.75244140625	33.74659729003906	782.427490234375	131.5029602050781	427.4661254882812	555.6339111328125	73.73539733886719	679.184814453125	596.6692504882812	189.4520111083984	53.12750625610352	382.8692626953125	164.7784271240234	308.0761108398438	531.9398803710938	298.4398803710938	38.21879577636719	551.2933959960938	320.7560424804688	39.62566375732422	485.3519287109375	202.7170257568359	36.91983032226562	483.8457641601562	222.8422241210938	64.08024597167969	322.7275085449219	404.560791015625	656.7265625	521.0337524414062	417.1284790039062	792.9125366210938	518.3070068359375	nan	nan	nan	nan	nan	nan	nan	nan	nan	
